<svg id="Calque_1" data-name="Calque 1" xmlns="http://www.w3.org/2000/svg" viewBox="0 0 741 435.58"><defs><style>.cls-1{fill:#222831;}.cls-2{fill:none;stroke:#eee;stroke-linecap:round;stroke-miterlimit:10;stroke-width:4px;}.cls-3{fill:#ffd369;}.cls-4{font-size:12px;}.cls-4,.cls-5{fill:#eee;font-family:Lato-Regular, Lato;}.cls-5{font-size:29px;}.cls-6{letter-spacing:-0.02em;}.cls-7{letter-spacing:-0.02em;}.cls-8{letter-spacing:-0.01em;}</style></defs><title>map</title><rect class="cls-1" width="741" height="435.58"/><path class="cls-2" d="M93.46,340.38s159-6.56,173.61-62.74,64.93-67.76,96.3-56.13,54,8,57.63-11,0-55.44-25.54-53.25-27.72,37.93-81,28.45-64.46-30.64-56.67-46,102.63-78.05,207.67-21.15S498.32,309,620.88,238.25"/><circle class="cls-3" cx="93.46" cy="340.38" r="13.1"/><circle class="cls-3" cx="262.81" cy="286.09" r="13.1"/><circle class="cls-3" cx="258.19" cy="147.39" r="13.1"/><circle class="cls-3" cx="453.69" cy="113.75" r="13.1"/><circle class="cls-3" cx="620.88" cy="236.04" r="13.1"/><text class="cls-4" transform="translate(68.52 367.06)">Lausanne</text><text class="cls-4" transform="translate(285.95 294.93)">Stuttgart</text><text class="cls-4" transform="translate(183.38 151.44)">Ingolstadt</text><text class="cls-5" transform="translate(20.71 42.05)">Itiné<tspan class="cls-6" x="58.46" y="0">r</tspan><tspan x="69.6" y="0">aire</tspan></text><text class="cls-4" transform="translate(473.3 105.71)">Munich</text><text class="cls-4" transform="translate(643.15 239.75)">Ch<tspan class="cls-7" x="14.89" y="0">a</tspan><tspan class="cls-8" x="20.78" y="0">v</tspan><tspan x="26.77" y="0">orn</tspan><tspan class="cls-7" x="44.95" y="0">a</tspan><tspan x="50.84" y="0">y</tspan></text></svg>